# xmcd CD database file
#
# Track frame offsets:
#	150
#	3418
#	20818
#	35690
#	43659
#	54970
#	62039
#	71676
#	83354
#	89059
#	101499
#	116021
#	129646
#	145882
#	154630
#	162598
#	181320
#	204553
#	243248
#	253433
#	264138
#	268878
#	280109
#	291364
#	303619
#
# Disc length: 4139 seconds
#
# Revision: 9
# Processed by: cddbd v1.5.2PL0 Copyright (c) Steve Scherf et al.
# Submitted via: CDex 2.06
#
DISCID=74102919
DTITLE=Various Artist - Live and swingin': The ultimate Rat Pack collection
DYEAR=2003
DGENRE=Swing
TTITLE0=Matty Malneck - Fanfare and introduction
TTITLE1=Dean Martin - Medley: Drink to me only with thine eyes - When you're smiling - The lady is a tramp
TTITLE2=Dean Martin - I left my heart in San Francisco
TTITLE3=Dean Martin - I'm gonna sit right down and write myself a letter
TTITLE4=Dean Martin - Medley: Volare (Nel blu dipinto di blu) - On an evening in Roma
TTITLE5=Frank Sinatra - Goody, goody
TTITLE6=Frank Sinatra - Chicago
TTITLE7=Frank Sinatra - When your lover has gone
TTITLE8=Frank Sinatra - Monologue
TTITLE9=Frank Sinatra - Please, be kind
TTITLE10=Frank Sinatra - You're nobody till somebody loves you
TTITLE11=Sammy Davis, Jr. - What kind of fool am I?
TTITLE12=Sammy Davis, Jr. - Out of this world
TTITLE13=Sammy Davis, Jr. - She's funny that way
TTITLE14=Sammy Davis, Jr. - Hey there
TTITLE15=Frank Sinatra - Dean Martin - Comedy
TTITLE16=Frank Sinatra - Dean Martin - Medley 1: Brazil - You are too beautiful - Cecilia (Does your mother know you're out?)...
TTITLE17=Frank Sinatra - Dean Martin - Medley 2: I can't give you anything but love - Too marvelous for words - Pennies from heaven...
TTITLE18=Frank Sinatra - Dean Martin - Sammy Davis, Jr. - Impressions
TTITLE19=Frank Sinatra - Dean Martin - Sammy Davis, Jr. - Birth of the blues
TTITLE20=Frank Sinatra - Dean Martin - Sammy Davis, Jr. - Danny Thomas introduction
TTITLE21=Frank Sinatra - Nancy (with the laughing face)
TTITLE22=Frank Sinatra - Sammy Davis, Jr. - Me and my shadow
TTITLE23=Dean Martin - Sammy Davis, Jr. - Sam's song
TTITLE24=Frank Sinatra - Dean Martin - Sammy Davis, Jr. - Birth of the blues [reprise]
EXTD=YEAR: 2003
EXTT0=
EXTT1=
EXTT2=
EXTT3=
EXTT4=
EXTT5=
EXTT6=
EXTT7=
EXTT8=
EXTT9=
EXTT10=
EXTT11=
EXTT12=
EXTT13=
EXTT14=
EXTT15=
EXTT16=Brazil - You Are Too Beautiful - Cecilia (Does Your Mother Know You're Out) - Love Walked In - You Made Me Love You - NothingCould Be Finer - Please Be Kind - Dancing With Tears InMy Eyes- Maria - Try A Little Tenderness - Swing Low, Sweet Chariot
EXTT16=What Is This Thing Called Love - Did You Ever See A Dream Walking
EXTT17=I Can't Give You Anyhting But Love - Too Marvelous For Words -Pennies From Heaven - A Foggy Day - Embraceable You - The LadyIs A Tramp - Where Or When
EXTT18=
EXTT19=
EXTT20=
EXTT21=
EXTT22=
EXTT23=
EXTT24=
PLAYORDER=
